<svg xmlns="http://www.w3.org/2000/svg" width="66" height="60" viewBox="0 0 66 60">
    <defs>
        <linearGradient id="a" x1="1.943%" x2="98.057%" y1="51.943%" y2="51.943%">
            <stop offset="0%" stop-color="#009A7E"/>
            <stop offset="100%" stop-color="#035972"/>
        </linearGradient>
    </defs>
    <g fill="url(#a)" fill-rule="nonzero" transform="translate(-685 -1330)">
        <path d="M707.912 1356.117a1.043 1.043 0 0 0-1.437-.368l-12.216 7.342a1.06 1.06 0 0 0-.512.909c0 .373.195.718.512.909l12.216 7.342a1.046 1.046 0 0 0 1.437-.368 1.063 1.063 0 0 0-.364-1.45L696.845 1364l10.703-6.433c.498-.299.66-.948.364-1.45zM727.293 1371.883a1.046 1.046 0 0 0 1.437.368l12.216-7.342a1.06 1.06 0 0 0 .512-.909 1.06 1.06 0 0 0-.512-.909l-12.216-7.342a1.043 1.043 0 0 0-1.437.368 1.063 1.063 0 0 0 .364 1.45L738.36 1364l-10.703 6.433c-.498.299-.661.948-.364 1.45zM722.035 1356.068l-9.82 14.684a1.06 1.06 0 0 0 .288 1.468 1.052 1.052 0 0 0 1.462-.289l9.82-14.683a1.06 1.06 0 0 0-.288-1.468 1.051 1.051 0 0 0-1.462.288z"/>
        <path d="M749.947 1330h-63.894c-.582 0-1.053.474-1.053 1.059v57.882c0 .585.471 1.059 1.053 1.059h63.894c.582 0 1.053-.474 1.053-1.059v-11.294c0-.585-.471-1.059-1.053-1.059s-1.053.474-1.053 1.06v10.234h-61.788v-47.294h61.788v32.824c0 .585.471 1.059 1.053 1.059s1.053-.474 1.053-1.06v-42.352c0-.585-.471-1.059-1.053-1.059zm-62.84 2.118h38.967v6.353h-38.968v-6.353zm41.074 6.353v-6.353h20.713v6.353H728.18z"/>
        <path d="M738.675 1334.8c-.658 0-1.193.538-1.193 1.2 0 .662.535 1.2 1.193 1.2.657 0 1.192-.538 1.192-1.2 0-.662-.535-1.2-1.192-1.2zM732.313 1334.8c-.657 0-1.193.538-1.193 1.2 0 .662.536 1.2 1.193 1.2.658 0 1.193-.538 1.193-1.2 0-.662-.535-1.2-1.193-1.2zM745.036 1334.8c-.658 0-1.193.538-1.193 1.2 0 .662.535 1.2 1.193 1.2s1.193-.538 1.193-1.2c0-.662-.535-1.2-1.193-1.2z"/>
    </g>
</svg>
