<?xml version="1.0" encoding="UTF-8"?>
<svg width="60px" height="60px" viewBox="0 0 60 60" version="1.1" xmlns="http://www.w3.org/2000/svg" xmlns:xlink="http://www.w3.org/1999/xlink">
    <!-- Generator: Sketch 46.2 (44496) - http://www.bohemiancoding.com/sketch -->
    <title>001-devices</title>
    <desc>Created with Sketch.</desc>
    <defs>
        <linearGradient x1="1.94316008%" y1="51.9431601%" x2="98.0568399%" y2="51.9431601%" id="linearGradient-1">
            <stop stop-color="#009A7E" offset="0%"></stop>
            <stop stop-color="#035972" offset="100%"></stop>
        </linearGradient>
    </defs>
    <g id="Page-1" stroke="none" stroke-width="1" fill="none" fill-rule="evenodd">
        <g id="Desktop-HD" transform="translate(-307.000000, -1325.000000)" fill-rule="nonzero" fill="url(#linearGradient-1)">
            <g id="3-sections" transform="translate(263.000000, 1325.000000)">
                <g id="001-devices" transform="translate(44.000000, 0.000000)">
                    <path d="M32.4839874,39.1301397 C33.0148795,39.1301397 33.4450521,38.7013533 33.4450521,38.1724572 C33.4450521,37.6435611 33.0148795,37.2147747 32.4839874,37.2147747 L2.06475143,37.2147747 C1.98876325,37.2147747 1.92212943,37.1482477 1.92212943,37.072527 L1.92212943,2.05761271 C1.92212943,1.98189195 1.98889139,1.91536494 2.06475143,1.91536494 L48.4230534,1.91536494 C48.4990416,1.91536494 48.5656754,1.98189195 48.5656754,2.05761271 L48.5656754,18.9129519 C48.5656754,19.441848 48.995848,19.8706344 49.5267402,19.8706344 C50.0576323,19.8706344 50.4878049,19.441848 50.4878049,18.9129519 L50.4878049,2.05761271 C50.487933,0.923078212 49.5615948,0 48.4231816,0 L2.06475143,0 C0.926338243,0 0,0.923078212 0,2.05761271 L0,37.072527 C0,38.2070615 0.926338243,39.1301397 2.06475143,39.1301397 L19.3886477,39.1301397 L19.3886477,44.9139033 L11.9987008,44.9139033 C11.4678086,44.9139033 11.037636,45.3426897 11.037636,45.8715858 C11.037636,46.4004819 11.4678086,46.8292683 11.9987008,46.8292683 L32.4839874,46.8292683 C33.0148795,46.8292683 33.4450521,46.4004819 33.4450521,45.8715858 C33.4450521,45.3426897 33.0148795,44.9139033 32.4839874,44.9139033 L31.0991572,44.9139033 L31.0991572,39.1301397 L32.4839874,39.1301397 Z M29.1770277,44.9139033 L21.3107771,44.9139033 L21.3107771,39.1301397 L29.1770277,39.1301397 L29.1770277,44.9139033 Z" id="Shape"></path>
                    <path d="M31.97656,30.7317073 L4.60880583,30.7317073 C4.0838771,30.7317073 3.65853659,31.223122 3.65853659,31.8292683 C3.65853659,32.4354146 4.0838771,32.9268293 4.60880583,32.9268293 L31.97656,32.9268293 C32.5014888,32.9268293 32.9268293,32.4354146 32.9268293,31.8292683 C32.9268293,31.223122 32.5014888,30.7317073 31.97656,30.7317073 Z" id="Shape"></path>
                    <path d="M57.9338289,21.9512195 L37.1882505,21.9512195 C36.0488557,21.9512195 35.1219512,22.8699456 35.1219512,23.9991309 L35.1219512,57.9520886 C35.1219512,59.081274 36.0489839,60 37.1882505,60 L57.9337007,60 C59.0730955,60 60,59.081274 60,57.9520886 L60,23.9991309 C60.0001282,22.8698185 59.0730955,21.9512195 57.9338289,21.9512195 L57.9338289,21.9512195 Z M37.0455216,27.6702224 L58.0765578,27.6702224 L58.0765578,50.4682014 L37.0455216,50.4682014 L37.0455216,27.6702224 Z M37.1882505,23.8575538 L57.9337007,23.8575538 C58.0097458,23.8575538 58.0764296,23.9237672 58.0764296,23.9991309 L58.0764296,25.7638881 L37.0455216,25.7638881 L37.0455216,23.9991309 C37.0455216,23.9236401 37.1123336,23.8575538 37.1882505,23.8575538 Z M57.9338289,58.0935386 L37.1882505,58.0935386 C37.1122054,58.0935386 37.0455216,58.0273253 37.0455216,57.9519615 L37.0455216,52.3745357 L58.0765578,52.3745357 L58.0765578,57.9519615 C58.0765578,58.0273253 58.0097458,58.0935386 57.9338289,58.0935386 Z" id="Shape"></path>
                    <path d="M49.5121951,54.1463415 L45.6097561,54.1463415 C45.0708293,54.1463415 44.6341463,54.6377561 44.6341463,55.2439024 C44.6341463,55.8500488 45.0708293,56.3414634 45.6097561,56.3414634 L49.5121951,56.3414634 C50.051122,56.3414634 50.4878049,55.8500488 50.4878049,55.2439024 C50.4878049,54.6377561 50.051122,54.1463415 49.5121951,54.1463415 Z" id="Shape"></path>
                </g>
            </g>
        </g>
    </g>
</svg>