<svg xmlns="http://www.w3.org/2000/svg" width="66" height="66" viewBox="0 0 66 66">
    <defs>
        <linearGradient id="a" x1="1.943%" x2="98.057%" y1="51.943%" y2="51.943%">
            <stop offset="0%" stop-color="#009A7E"/>
            <stop offset="100%" stop-color="#035972"/>
        </linearGradient>
    </defs>
    <g fill="url(#a)" fill-rule="nonzero" transform="translate(-307 -1325)">
        <path d="M342.732 1368.043c.584 0 1.058-.472 1.058-1.053 0-.582-.474-1.054-1.058-1.054h-33.46a.16.16 0 0 1-.158-.156v-38.517a.16.16 0 0 1 .157-.156h50.994a.16.16 0 0 1 .157.156v18.541c0 .582.473 1.054 1.057 1.054s1.058-.472 1.058-1.054v-18.54a2.27 2.27 0 0 0-2.272-2.264h-50.994a2.27 2.27 0 0 0-2.271 2.263v38.517a2.27 2.27 0 0 0 2.271 2.263h19.057v6.362h-8.13c-.583 0-1.057.472-1.057 1.054 0 .582.474 1.053 1.058 1.053h22.533c.584 0 1.058-.471 1.058-1.053s-.474-1.054-1.058-1.054h-1.523v-6.362h1.523zm-3.637 6.362h-8.653v-6.362h8.653v6.362z"/>
        <path d="M342.174 1358.805H312.07c-.578 0-1.046.54-1.046 1.207s.468 1.208 1.046 1.208h30.104c.578 0 1.046-.541 1.046-1.208 0-.667-.468-1.207-1.046-1.207zM370.727 1349.146h-22.82a2.265 2.265 0 0 0-2.273 2.253v37.348a2.266 2.266 0 0 0 2.273 2.253h22.82a2.265 2.265 0 0 0 2.273-2.253V1351.4a2.265 2.265 0 0 0-2.273-2.253zm-22.977 6.291h23.134v25.078H347.75v-25.078zm.157-4.194h22.82a.16.16 0 0 1 .157.156v1.941H347.75v-1.941a.16.16 0 0 1 .157-.156zm22.82 37.66h-22.82a.16.16 0 0 1-.157-.156v-6.135h23.134v6.135a.16.16 0 0 1-.157.156z"/>
        <path d="M361.463 1384.561h-4.292c-.593 0-1.073.54-1.073 1.207s.48 1.208 1.073 1.208h4.292c.593 0 1.074-.54 1.074-1.208 0-.666-.48-1.207-1.074-1.207z"/>
    </g>
</svg>
