<svg xmlns="http://www.w3.org/2000/svg" width="70" height="61" viewBox="0 0 70 61">
    <defs>
        <linearGradient id="a" x1="1.943%" x2="98.057%" y1="51.943%" y2="51.943%">
            <stop offset="0%" stop-color="#009A7E"/>
            <stop offset="100%" stop-color="#035972"/>
        </linearGradient>
    </defs>
    <g fill="url(#a)" fill-rule="nonzero" transform="translate(-1065 -1330)">
        <path d="M1133.66 1335.988a4.706 4.706 0 0 0-6.111-.465l-7.738 5.73c-1.816-3.408-5.135-6.258-9.656-8.275-4.306-1.92-9.498-2.978-14.621-2.978-8.032 0-15.617 3.07-21.359 8.646a1.067 1.067 0 0 0-.017 1.515c.417.424 1.1.431 1.527.017 5.335-5.18 12.385-8.034 19.849-8.034 8.426 0 18.975 3.26 22.523 10.409l-5.912 4.378a1.067 1.067 0 0 0-.22 1.5 1.084 1.084 0 0 0 1.51.219l15.405-11.408a2.528 2.528 0 0 1 3.282.249 2.474 2.474 0 0 1-.452 3.85l-24.154 15.092-1.1-1.594-.454-.656 3.338-2.471a1.067 1.067 0 0 0 .22-1.5 1.084 1.084 0 0 0-1.51-.219l-4.152 3.075-2.548 1.735a7.37 7.37 0 0 0-6.236-.283c-.576.237-2.33.956-6.59 7.818-2.035 3.278-3.696 6.437-3.713 6.468-.181.347-.16.763.058 1.088a1.081 1.081 0 0 0 .987.476c.47-.038 11.558-.953 14.887-2.319a7.326 7.326 0 0 0 4.518-7.51l2.552-1.738.014-.007 8.866-5.54c-1.076 1.55-2.131 3.315-2.131 5.604 0 1.887 1.34 3.347 2.76 4.893 1.597 1.74 3.249 3.54 3.249 6.11 0 .591.483 1.071 1.08 1.071.595 0 1.078-.48 1.078-1.072 0-3.4-2.114-5.702-3.812-7.553-1.179-1.284-2.197-2.393-2.197-3.449 0-1.93 1.062-3.424 2.187-5.007.703-.99 1.428-2.013 1.926-3.183l12.026-7.515a4.606 4.606 0 0 0 2.149-3.384 4.587 4.587 0 0 0-1.308-3.783zm-33.78 30.082c-2.083.855-8.39 1.608-12.246 1.984a112.746 112.746 0 0 1 2.688-4.591c3.513-5.66 5.07-6.754 5.577-6.962a5.213 5.213 0 0 1 3.99.004c.309.128.6.283.874.461l.025.016a5.15 5.15 0 0 1 1.919 2.327c1.097 2.639-.171 5.671-2.828 6.761zm4.755-7.728a7.296 7.296 0 0 0-1.488-2.19l1.06-.722.47.682 1.034 1.497-1.076.733z"/>
        <path d="M1121.381 1374.128a1.085 1.085 0 0 0-1.368.686c-2.691 8.132-12.93 14.035-24.344 14.035-15.716 0-28.502-12.696-28.502-28.3a28 28 0 0 1 5.003-16.021 1.07 1.07 0 0 0-.278-1.496 1.088 1.088 0 0 0-1.507.276 30.131 30.131 0 0 0-5.385 17.24c0 16.791 13.758 30.452 30.67 30.452 5.737 0 11.5-1.445 16.224-4.068 5.12-2.843 8.64-6.802 10.178-11.446a1.074 1.074 0 0 0-.691-1.358z"/>
        <path d="M1073.046 1357.29c-2.256 0-4.023 2.644-4.023 6.02 0 3.375 1.767 6.019 4.023 6.019s4.023-2.644 4.023-6.02c0-3.375-1.767-6.02-4.023-6.02zm0 9.785c-.883 0-1.87-1.61-1.87-3.766 0-2.155.987-3.766 1.87-3.766.883 0 1.87 1.61 1.87 3.766 0 2.156-.987 3.766-1.87 3.766zM1081.674 1372.596c-.707-1.216-1.687-2.196-2.761-2.757-1.214-.635-2.468-.679-3.442-.12-1.905 1.093-2.166 4.069-.593 6.775 1.19 2.047 3.04 3.27 4.694 3.27a3 3 0 0 0 1.509-.393c1.905-1.093 2.166-4.069.593-6.775zm-1.644 4.968c-.745.428-2.33-.385-3.334-2.113s-.92-3.498-.175-3.926a.926.926 0 0 1 .466-.112c.278 0 .604.092.947.272.717.375 1.418 1.087 1.921 1.954 1.004 1.728.921 3.498.175 3.925zM1111.427 1377.09c-.892-2.111-3.96-2.768-6.984-1.494-3.023 1.273-4.693 3.925-3.8 6.037.584 1.384 2.104 2.143 3.933 2.143.961 0 2.008-.21 3.05-.648 3.023-1.274 4.693-3.925 3.8-6.037zm-4.653 4.022c-1.93.814-3.764.497-4.113-.33-.349-.825.703-2.357 2.634-3.17.782-.33 1.548-.474 2.206-.474.966 0 1.7.311 1.907.803.35.826-.703 2.358-2.634 3.171zM1081.088 1347.057c-.053-1.362-.642-2.464-1.616-3.022-.975-.56-2.23-.516-3.442.12-1.074.562-2.055 1.541-2.762 2.757-.706 1.217-1.07 2.55-1.023 3.755.054 1.362.643 2.463 1.617 3.022.454.26.968.39 1.51.39.624 0 1.284-.17 1.932-.51 1.074-.562 2.054-1.541 2.761-2.758.707-1.216 1.07-2.55 1.023-3.754zm-2.842 2.711c-.504.867-1.204 1.58-1.921 1.955-.562.294-1.077.352-1.413.159-.337-.193-.543-.665-.568-1.296-.032-.804.24-1.763.743-2.63.504-.867 1.204-1.58 1.921-1.955.344-.18.67-.271.948-.271.177 0 .335.037.466.112.336.193.543.665.567 1.296.032.804-.24 1.763-.743 2.63zM1091.963 1337.235c-.56-.972-1.664-1.56-3.029-1.613-1.207-.046-2.544.316-3.763 1.02-1.219.706-2.2 1.684-2.764 2.755-.636 1.21-.68 2.462-.12 3.434.56.971 1.664 1.56 3.029 1.612.07.003.14.004.21.004 1.151 0 2.404-.36 3.553-1.024 2.713-1.57 3.98-4.287 2.884-6.188zm-3.93 4.374c-.869.502-1.83.774-2.636.741-.632-.024-1.105-.23-1.299-.566-.193-.336-.135-.85.16-1.41.376-.716 1.09-1.414 1.96-1.917.823-.476 1.729-.743 2.508-.743.043 0 .085 0 .127.002.632.025 1.106.231 1.299.567.429.743-.387 2.324-2.119 3.326zM1100.17 1334.904c-1.411-.207-2.805-.047-3.925.45-1.265.562-2.085 1.529-2.25 2.654-.164 1.125.346 2.287 1.397 3.188.93.797 2.22 1.35 3.632 1.557.411.06.814.09 1.206.09 2.604 0 4.69-1.281 4.969-3.194.321-2.2-1.888-4.285-5.029-4.745zm2.932 4.438c-.126.86-1.765 1.604-3.771 1.31-1.006-.147-1.94-.537-2.561-1.07-.487-.417-.734-.879-.677-1.267.056-.388.425-.76 1.01-1.02.528-.234 1.182-.356 1.875-.356.29 0 .588.022.886.065 2.005.294 3.364 1.477 3.238 2.338zM1096.064 1380.594c-.838-.969-2.067-1.724-3.46-2.126-3.1-.894-5.99.208-6.58 2.51-.59 2.302 1.377 4.806 4.477 5.7a7.69 7.69 0 0 0 2.123.309 6.08 6.08 0 0 0 1.876-.282c1.34-.435 2.28-1.36 2.581-2.537.302-1.176-.069-2.479-1.017-3.574zm-1.052 2.977c-.104.406-.52.755-1.14.956-.791.258-1.815.24-2.808-.046-1.98-.57-3.2-2.005-2.97-2.906.167-.653 1.125-1.137 2.394-1.137.482 0 1.008.07 1.554.227.992.287 1.883.822 2.443 1.469.439.507.63 1.03.527 1.437z"/>
    </g>
</svg>
